<mxfile host="app.diagrams.net" modified="2023-03-03T12:27:14.911Z" agent="5.0 (Windows NT 10.0; Win64; x64) AppleWebKit/537.36 (KHTML, like Gecko) Chrome/110.0.0.0 Safari/537.36 Edg/110.0.1587.57" etag="gXHWXQfnkfEZ3qhiX3a-" version="21.0.2" type="github">
  <diagram name="第 1 页" id="oVK6UXfnrhixuKSFk506">
    <mxGraphModel dx="1114" dy="616" grid="1" gridSize="10" guides="1" tooltips="1" connect="1" arrows="1" fold="1" page="1" pageScale="1" pageWidth="827" pageHeight="1169" math="0" shadow="0">
      <root>
        <mxCell id="0" />
        <mxCell id="1" parent="0" />
        <mxCell id="NBKLiuS5RyvHAW4yS1_x-1" value="GenerateDetectionSequence" style="swimlane;fontStyle=1;align=center;verticalAlign=top;childLayout=stackLayout;horizontal=1;startSize=26;horizontalStack=0;resizeParent=1;resizeParentMax=0;resizeLast=0;collapsible=1;marginBottom=0;whiteSpace=wrap;html=1;" vertex="1" parent="1">
          <mxGeometry x="160" y="260" width="320" height="160" as="geometry" />
        </mxCell>
        <mxCell id="NBKLiuS5RyvHAW4yS1_x-2" value="-model_style:string&lt;br&gt;-fault_cell:string" style="text;strokeColor=none;fillColor=none;align=left;verticalAlign=top;spacingLeft=4;spacingRight=4;overflow=hidden;rotatable=0;points=[[0,0.5],[1,0.5]];portConstraint=eastwest;whiteSpace=wrap;html=1;" vertex="1" parent="NBKLiuS5RyvHAW4yS1_x-1">
          <mxGeometry y="26" width="320" height="44" as="geometry" />
        </mxCell>
        <mxCell id="NBKLiuS5RyvHAW4yS1_x-3" value="" style="line;strokeWidth=1;fillColor=none;align=left;verticalAlign=middle;spacingTop=-1;spacingLeft=3;spacingRight=3;rotatable=0;labelPosition=right;points=[];portConstraint=eastwest;strokeColor=inherit;" vertex="1" parent="NBKLiuS5RyvHAW4yS1_x-1">
          <mxGeometry y="70" width="320" height="8" as="geometry" />
        </mxCell>
        <mxCell id="NBKLiuS5RyvHAW4yS1_x-4" value="&lt;font style=&quot;font-size: 11px;&quot;&gt;-generation_sensitized_for_coupling_model(string):string&lt;br&gt;-&lt;/font&gt;generation_sensitized_for_single_model(string):string&lt;br&gt;-generation_sensitized_root(string):string&lt;br&gt;-generation_detection_root():string&lt;br&gt;+generation_detection_sequence(string):string" style="text;strokeColor=none;fillColor=none;align=left;verticalAlign=top;spacingLeft=4;spacingRight=4;overflow=hidden;rotatable=0;points=[[0,0.5],[1,0.5]];portConstraint=eastwest;whiteSpace=wrap;html=1;" vertex="1" parent="NBKLiuS5RyvHAW4yS1_x-1">
          <mxGeometry y="78" width="320" height="82" as="geometry" />
        </mxCell>
      </root>
    </mxGraphModel>
  </diagram>
</mxfile>
